<?xml version="1.0" encoding="UTF-8" standalone="no"?>
<svg
   xmlns:dc="http://purl.org/dc/elements/1.1/"
   xmlns:cc="http://creativecommons.org/ns#"
   xmlns:rdf="http://www.w3.org/1999/02/22-rdf-syntax-ns#"
   xmlns:svg="http://www.w3.org/2000/svg"
   xmlns="http://www.w3.org/2000/svg"
   xmlns:sodipodi="http://sodipodi.sourceforge.net/DTD/sodipodi-0.dtd"
   xmlns:inkscape="http://www.inkscape.org/namespaces/inkscape"
   width="120"
   height="120"
   viewBox="0 0 31.749998 31.750001"
   version="1.1"
   id="svg8"
   inkscape:version="1.0.2 (e86c870879, 2021-01-15)"
   sodipodi:docname="article-his.svg">
  <defs
     id="defs2" />
  <sodipodi:namedview
     id="base"
     pagecolor="#ffffff"
     bordercolor="#666666"
     borderopacity="1.0"
     inkscape:pageopacity="0.0"
     inkscape:pageshadow="2"
     inkscape:zoom="11.2"
     inkscape:cx="55.870995"
     inkscape:cy="39.080621"
     inkscape:document-units="mm"
     inkscape:current-layer="layer1"
     inkscape:document-rotation="0"
     showgrid="true"
     units="px"
     inkscape:snap-bbox="false"
     inkscape:bbox-paths="true"
     inkscape:bbox-nodes="true"
     inkscape:snap-bbox-edge-midpoints="true"
     inkscape:object-paths="true"
     inkscape:snap-intersection-paths="true"
     inkscape:snap-midpoints="true"
     inkscape:snap-bbox-midpoints="true"
     inkscape:snap-smooth-nodes="true"
     inkscape:snap-object-midpoints="true"
     inkscape:snap-center="true"
     inkscape:snap-text-baseline="true"
     inkscape:snap-page="true"
     inkscape:window-width="1698"
     inkscape:window-height="1408"
     inkscape:window-x="0"
     inkscape:window-y="0"
     inkscape:window-maximized="1"
     inkscape:snap-others="false">
    <inkscape:grid
       type="xygrid"
       id="grid833" />
  </sodipodi:namedview>
  <metadata
     id="metadata5">
    <rdf:RDF>
      <cc:Work
         rdf:about="">
        <dc:format>image/svg+xml</dc:format>
        <dc:type
           rdf:resource="http://purl.org/dc/dcmitype/StillImage" />
        <dc:title></dc:title>
      </cc:Work>
    </rdf:RDF>
  </metadata>
  <g
     inkscape:label="图层 1"
     inkscape:groupmode="layer"
     id="layer1">
    <rect
       style="opacity:1;fill:#2ca089;stroke:none;stroke-width:0.529167;stroke-opacity:0.65908301;fill-opacity:1"
       id="rect835"
       width="31.75"
       height="31.75"
       x="0"
       y="0"
       ry="0" />
    <rect
       style="opacity:0.87830189;fill:#f9f9f9;fill-opacity:1;stroke:none;stroke-width:0.529167;stroke-opacity:0.659083"
       id="rect837"
       width="26.458332"
       height="26.458332"
       x="2.6458333"
       y="2.6458333" />
    <path
       style="fill:#2ca089;fill-opacity:1;stroke:#000000;stroke-width:0.264583px;stroke-linecap:butt;stroke-linejoin:miter;stroke-opacity:0"
       d="m 0.83451135,5.4806194 c 0,0 5.10153595,1.4057265 6.59800805,5.9347406 C 8.8382458,6.3138249 7.1024457,2.9945964 4.7665909,1.3601768 1.2918706,-0.96950217 0.83451135,5.4806194 0.83451135,5.4806194 Z"
       id="path965"
       sodipodi:nodetypes="cccc" />
    <path
       style="fill:#2ca089;fill-opacity:1;stroke:#000000;stroke-width:0.264583px;stroke-linecap:butt;stroke-linejoin:miter;stroke-opacity:0"
       d="m 4.763098,31.739315 c 0,0 2.5562034,-4.63331 7.309287,-5.032813 -4.6333091,-2.556203 -8.2657235,-1.641956 -10.3996206,0.248554 -3.0754802,2.835931 3.0903336,4.784259 3.0903336,4.784259 z"
       id="path965-6"
       sodipodi:nodetypes="cccc" />
    <path
       style="fill:#2ca089;fill-opacity:1;stroke:#000000;stroke-width:0.264583px;stroke-linecap:butt;stroke-linejoin:miter;stroke-opacity:0"
       d="m 27.070018,0.69064358 c 0,0 -2.288931,4.77100982 -7.011653,5.43981582 4.771008,2.2889308 8.345636,1.1698593 10.368718,-0.8387927 2.909451,-3.0060242 -3.357065,-4.60102312 -3.357065,-4.60102312 z"
       id="path965-6-2"
       sodipodi:nodetypes="cccc" />
    <path
       style="fill:#2ca089;fill-opacity:1;stroke:#000000;stroke-width:0.264583px;stroke-linecap:butt;stroke-linejoin:miter;stroke-opacity:0"
       d="m 31.898149,26.855403 c 0,0 -4.77101,-2.288931 -5.439816,-7.011653 -2.288931,4.771008 -1.169859,8.345636 0.838793,10.368718 3.006024,2.909451 4.601023,-3.357065 4.601023,-3.357065 z"
       id="path965-6-2-9"
       sodipodi:nodetypes="cccc" />
    <path
       style="fill:#f9f9f9;stroke:#747474;stroke-width:0.529167;stroke-linecap:butt;stroke-linejoin:miter;stroke-miterlimit:4;stroke-dasharray:none;stroke-opacity:1"
       d="m 5.2916669,16.66875 c 0,0 15.8749991,-2.645833 18.5208331,-2.645833 2.645833,0 3.96875,0 3.96875,1.322916 0,1.322917 -2.645834,1.322917 -2.645834,1.322917 0,0 -9.260416,0 -14.552083,1.322916 -5.2916661,1.322917 -6.6145827,1.322917 -6.6145827,0 0,-1.322916 1.3229166,-1.322916 1.3229166,-1.322916 z"
       id="path877" />
    <path
       style="fill:#e9ddaf;fill-opacity:1;stroke:#747474;stroke-width:0.529167;stroke-linecap:butt;stroke-linejoin:miter;stroke-miterlimit:4;stroke-dasharray:none;stroke-opacity:1"
       d="m 10.208923,12.54881 c 0,0 11.257272,-1.171727 12.28066,-1.171727 1.023388,0 1.023388,2.343454 1.023388,2.343454 0,0 0,5.85863 0,5.85863 0,0 0,1.171726 -1.023388,1.171726 -1.023388,0 -8.187107,-1.171726 -10.233883,0 -2.046777,1.171726 -3.0701652,1.171726 -3.0701652,0 0,-1.171726 -1.0233883,-8.202083 1.0233882,-8.202083 z"
       id="path875" />
  </g>
</svg>
