<?xml version="1.0" encoding="UTF-8" standalone="no"?>
<svg
   xmlns:dc="http://purl.org/dc/elements/1.1/"
   xmlns:cc="http://creativecommons.org/ns#"
   xmlns:rdf="http://www.w3.org/1999/02/22-rdf-syntax-ns#"
   xmlns:svg="http://www.w3.org/2000/svg"
   xmlns="http://www.w3.org/2000/svg"
   xmlns:sodipodi="http://sodipodi.sourceforge.net/DTD/sodipodi-0.dtd"
   xmlns:inkscape="http://www.inkscape.org/namespaces/inkscape"
   width="120"
   height="120"
   viewBox="0 0 31.749998 31.750001"
   version="1.1"
   id="svg8"
   inkscape:version="1.0.2 (e86c870879, 2021-01-15)"
   sodipodi:docname="share-note.svg">
  <defs
     id="defs2" />
  <sodipodi:namedview
     id="base"
     pagecolor="#ffffff"
     bordercolor="#666666"
     borderopacity="1.0"
     inkscape:pageopacity="0.0"
     inkscape:pageshadow="2"
     inkscape:zoom="3.959798"
     inkscape:cx="39.918255"
     inkscape:cy="83.347026"
     inkscape:document-units="mm"
     inkscape:current-layer="layer1"
     inkscape:document-rotation="0"
     showgrid="true"
     units="px"
     inkscape:snap-bbox="false"
     inkscape:bbox-paths="true"
     inkscape:bbox-nodes="true"
     inkscape:snap-bbox-edge-midpoints="true"
     inkscape:object-paths="true"
     inkscape:snap-intersection-paths="true"
     inkscape:snap-midpoints="true"
     inkscape:snap-bbox-midpoints="true"
     inkscape:snap-smooth-nodes="true"
     inkscape:snap-object-midpoints="true"
     inkscape:snap-center="true"
     inkscape:snap-text-baseline="true"
     inkscape:snap-page="true"
     inkscape:window-width="1715"
     inkscape:window-height="1408"
     inkscape:window-x="0"
     inkscape:window-y="0"
     inkscape:window-maximized="1"
     inkscape:snap-others="false">
    <inkscape:grid
       type="xygrid"
       id="grid833" />
  </sodipodi:namedview>
  <metadata
     id="metadata5">
    <rdf:RDF>
      <cc:Work
         rdf:about="">
        <dc:format>image/svg+xml</dc:format>
        <dc:type
           rdf:resource="http://purl.org/dc/dcmitype/StillImage" />
        <dc:title></dc:title>
      </cc:Work>
    </rdf:RDF>
  </metadata>
  <g
     inkscape:label="图层 1"
     inkscape:groupmode="layer"
     id="layer1">
    <rect
       style="opacity:1;fill:#88878a;stroke:none;stroke-width:0.529167;stroke-opacity:0.65908301;fill-opacity:1"
       id="rect835"
       width="31.75"
       height="31.75"
       x="0"
       y="0"
       ry="0" />
    <rect
       style="opacity:0.87830189;fill:#f9f9f9;fill-opacity:1;stroke:none;stroke-width:0.529167;stroke-opacity:0.659083"
       id="rect837"
       width="26.458332"
       height="26.458332"
       x="2.6458333"
       y="2.6458333" />
    <path
       style="fill:#88878a;fill-opacity:1;stroke:none;stroke-width:0.264583px;stroke-linecap:butt;stroke-linejoin:miter;stroke-opacity:0.64549708"
       d="m 0.83451135,5.4806194 c 0,0 5.10153595,1.4057265 6.59800805,5.9347406 C 8.8382458,6.3138249 7.1024457,2.9945964 4.7665909,1.3601768 1.2918706,-0.96950217 0.83451135,5.4806194 0.83451135,5.4806194 Z"
       id="path965"
       sodipodi:nodetypes="cccc" />
    <path
       style="fill:#88878a;fill-opacity:1;stroke:none;stroke-width:0.264583px;stroke-linecap:butt;stroke-linejoin:miter;stroke-opacity:0.64549708"
       d="m 4.763098,31.739315 c 0,0 2.5562034,-4.63331 7.309287,-5.032813 -4.6333091,-2.556203 -8.2657235,-1.641956 -10.3996206,0.248554 -3.0754802,2.835931 3.0903336,4.784259 3.0903336,4.784259 z"
       id="path965-6"
       sodipodi:nodetypes="cccc" />
    <path
       style="fill:#88878a;fill-opacity:1;stroke:none;stroke-width:0.264583px;stroke-linecap:butt;stroke-linejoin:miter;stroke-opacity:0.64549708"
       d="m 27.070018,0.69064358 c 0,0 -2.288931,4.77100982 -7.011653,5.43981582 4.771008,2.2889308 8.345636,1.1698593 10.368718,-0.8387927 2.909451,-3.0060242 -3.357065,-4.60102312 -3.357065,-4.60102312 z"
       id="path965-6-2"
       sodipodi:nodetypes="cccc" />
    <path
       style="fill:#88878a;fill-opacity:1;stroke:none;stroke-width:0.264583px;stroke-linecap:butt;stroke-linejoin:miter;stroke-opacity:0.64549708"
       d="m 31.898149,26.855403 c 0,0 -4.77101,-2.288931 -5.439816,-7.011653 -2.288931,4.771008 -1.169859,8.345636 0.838793,10.368718 3.006024,2.909451 4.601023,-3.357065 4.601023,-3.357065 z"
       id="path965-6-2-9"
       sodipodi:nodetypes="cccc" />
    <path
       style="fill:#88878a;fill-opacity:1;stroke:#b5b7b3;stroke-width:0.455182;stroke-linecap:butt;stroke-linejoin:miter;stroke-miterlimit:4;stroke-dasharray:none;stroke-opacity:1"
       d="m 14.562966,9.045934 c 0,0 -0.939413,1.053931 -2.055451,3.024698 -5.1386287,8.065863 -5.1386287,9.074096 -2.055452,10.08233 1.453423,0 5.138629,2.016465 5.138629,2.016465 0,0 1.027725,0 2.055452,-1.008232 1.027726,-1.008233 2.055452,-3.024701 3.083177,-6.049397 1.027727,-3.0247 2.055452,-5.041166 3.083179,-5.041166 1.027726,0 1.027726,-1.008231 1.027726,-1.008231 0,0 0,-1.008235 -1.027726,-1.008235 -1.027727,0 -8.221808,-1.008232 -8.221808,-2.0164648 0,-1.0082329 -1.027726,1.0082328 -1.027726,1.0082328 z"
       id="path1091"
       sodipodi:nodetypes="ccccssscssc" />
    <path
       style="fill:none;fill-opacity:1;stroke:#d7d5d2;stroke-width:0.455182;stroke-linecap:butt;stroke-linejoin:miter;stroke-miterlimit:4;stroke-dasharray:none;stroke-opacity:1"
       d="m 15.160571,11.114678 c 0,0 0,-1.1762707 2.201774,0 2.201774,1.176273 2.201774,2.352544 3.302663,2.352544"
       id="path1095" />
    <path
       style="fill:none;fill-opacity:1;stroke:#d7d5d2;stroke-width:0.455182;stroke-linecap:butt;stroke-linejoin:miter;stroke-miterlimit:4;stroke-dasharray:none;stroke-opacity:1"
       d="m 14.50004,12.290951 c 0,0 0,-1.176272 2.201774,0 2.201774,1.176271 2.201774,2.352544 3.302662,2.352544"
       id="path1095-1" />
    <path
       style="fill:none;fill-opacity:1;stroke:#d7d5d2;stroke-width:0.455182;stroke-linecap:butt;stroke-linejoin:miter;stroke-miterlimit:4;stroke-dasharray:none;stroke-opacity:1"
       d="m 13.619329,13.467221 c 0,0 0,-1.17627 2.201775,0 2.201774,1.176273 2.201774,2.352545 3.302662,2.352545"
       id="path1095-1-2" />
    <path
       style="fill:none;stroke:#88878a;stroke-width:0.682772;stroke-linecap:round;stroke-linejoin:miter;stroke-miterlimit:4;stroke-dasharray:none;stroke-opacity:1;paint-order:stroke markers fill"
       d="m 16.033128,24.707153 c 0,0 0.440354,0.470508 1.541241,0.470508 1.55689,0 2.201775,-3.528815 3.302662,-5.881358 2.201774,-4.705088 1.100887,-4.705088 2.201774,-5.881358 1.100888,-1.176273 2.201775,0 2.201775,-1.176273 v -1.176271 0"
       id="path1137"
       sodipodi:nodetypes="csssscc" />
  </g>
</svg>
